<?xml version="1.0" encoding="UTF-8"?>
<svg xmlns="http://www.w3.org/2000/svg" xmlns:xlink="http://www.w3.org/1999/xlink" width="1000pt" height="500pt" viewBox="0 0 1000 500" version="1.1">
<g id="surface1">
<path style=" stroke:none;fill-rule:nonzero;fill:rgb(70.588235%,49.019608%,33.72549%);fill-opacity:1;" d="M 396.765625 279.75 C 397.128906 279.75 397.441406 279.875 397.703125 280.125 L 399.921875 282.515625 C 398.296875 284.257812 396.53125 285.824219 394.625 287.21875 C 392.71875 288.605469 390.625 289.789062 388.34375 290.765625 C 386.070312 291.746094 383.578125 292.5 380.859375 293.03125 C 378.140625 293.570312 375.15625 293.84375 371.90625 293.84375 C 366.46875 293.84375 361.476562 292.890625 356.9375 290.984375 C 352.40625 289.078125 348.507812 286.382812 345.25 282.890625 C 342 279.390625 339.476562 275.164062 337.6875 270.203125 C 335.894531 265.246094 335 259.730469 335 253.65625 C 335 247.699219 335.921875 242.261719 337.765625 237.34375 C 339.617188 232.417969 342.207031 228.1875 345.53125 224.65625 C 348.863281 221.125 352.859375 218.390625 357.515625 216.453125 C 362.179688 214.507812 367.328125 213.53125 372.953125 213.53125 C 378.316406 213.53125 383.070312 214.367188 387.21875 216.03125 C 391.363281 217.699219 395.140625 220.046875 398.546875 223.078125 L 396.828125 225.578125 C 396.523438 226.015625 396.0625 226.234375 395.4375 226.234375 C 394.988281 226.234375 394.265625 225.828125 393.265625 225.015625 C 392.265625 224.203125 390.875 223.308594 389.09375 222.328125 C 387.320312 221.351562 385.113281 220.453125 382.46875 219.640625 C 379.820312 218.828125 376.648438 218.421875 372.953125 218.421875 C 368.210938 218.421875 363.875 219.234375 359.9375 220.859375 C 356 222.484375 352.613281 224.820312 349.78125 227.859375 C 346.945312 230.890625 344.734375 234.589844 343.140625 238.953125 C 341.554688 243.320312 340.765625 248.21875 340.765625 253.65625 C 340.765625 259.210938 341.566406 264.167969 343.171875 268.53125 C 344.785156 272.898438 347 276.589844 349.8125 279.609375 C 352.625 282.621094 355.941406 284.933594 359.765625 286.546875 C 363.597656 288.152344 367.734375 288.953125 372.171875 288.953125 C 374.984375 288.953125 377.488281 288.773438 379.6875 288.40625 C 381.894531 288.03125 383.921875 287.476562 385.765625 286.734375 C 387.617188 285.996094 389.34375 285.089844 390.9375 284.015625 C 392.53125 282.945312 394.101562 281.6875 395.65625 280.25 C 395.84375 280.09375 396.023438 279.976562 396.203125 279.890625 C 396.390625 279.796875 396.578125 279.75 396.765625 279.75 Z M 433.449219 236.84375 C 437.40625 236.84375 440.949219 237.523438 444.074219 238.875 C 447.199219 240.21875 449.832031 242.132812 451.980469 244.609375 C 454.125 247.089844 455.761719 250.078125 456.886719 253.578125 C 458.019531 257.078125 458.589844 260.992188 458.589844 265.3125 C 458.589844 269.648438 458.019531 273.554688 456.886719 277.03125 C 455.761719 280.5 454.125 283.476562 451.980469 285.953125 C 449.832031 288.433594 447.199219 290.339844 444.074219 291.671875 C 440.949219 293.003906 437.40625 293.671875 433.449219 293.671875 C 429.488281 293.671875 425.949219 293.003906 422.824219 291.671875 C 419.699219 290.339844 417.050781 288.433594 414.886719 285.953125 C 412.71875 283.476562 411.066406 280.5 409.933594 277.03125 C 408.808594 273.554688 408.246094 269.648438 408.246094 265.3125 C 408.246094 260.992188 408.808594 257.078125 409.933594 253.578125 C 411.066406 250.078125 412.71875 247.089844 414.886719 244.609375 C 417.050781 242.132812 419.699219 240.21875 422.824219 238.875 C 425.949219 237.523438 429.488281 236.84375 433.449219 236.84375 Z M 433.449219 289.515625 C 436.738281 289.515625 439.613281 288.953125 442.074219 287.828125 C 444.542969 286.695312 446.597656 285.074219 448.246094 282.96875 C 449.890625 280.855469 451.121094 278.308594 451.933594 275.328125 C 452.746094 272.351562 453.152344 269.011719 453.152344 265.3125 C 453.152344 261.648438 452.746094 258.320312 451.933594 255.328125 C 451.121094 252.328125 449.890625 249.765625 448.246094 247.640625 C 446.597656 245.515625 444.542969 243.882812 442.074219 242.734375 C 439.613281 241.578125 436.738281 241 433.449219 241 C 430.15625 241 427.277344 241.578125 424.808594 242.734375 C 422.347656 243.882812 420.296875 245.515625 418.652344 247.640625 C 417.003906 249.765625 415.765625 252.328125 414.933594 255.328125 C 414.109375 258.320312 413.699219 261.648438 413.699219 265.3125 C 413.699219 269.011719 414.109375 272.351562 414.933594 275.328125 C 415.765625 278.308594 417.003906 280.855469 418.652344 282.96875 C 420.296875 285.074219 422.347656 286.695312 424.808594 287.828125 C 427.277344 288.953125 430.15625 289.515625 433.449219 289.515625 Z M 479.34375 212.203125 L 479.34375 292.953125 L 474.015625 292.953125 L 474.015625 212.203125 Z M 519.921875 236.84375 C 523.878906 236.84375 527.421875 237.523438 530.546875 238.875 C 533.671875 240.21875 536.304688 242.132812 538.453125 244.609375 C 540.597656 247.089844 542.234375 250.078125 543.359375 253.578125 C 544.492188 257.078125 545.0625 260.992188 545.0625 265.3125 C 545.0625 269.648438 544.492188 273.554688 543.359375 277.03125 C 542.234375 280.5 540.597656 283.476562 538.453125 285.953125 C 536.304688 288.433594 533.671875 290.339844 530.546875 291.671875 C 527.421875 293.003906 523.878906 293.671875 519.921875 293.671875 C 515.960938 293.671875 512.421875 293.003906 509.296875 291.671875 C 506.171875 290.339844 503.523438 288.433594 501.359375 285.953125 C 499.191406 283.476562 497.539062 280.5 496.40625 277.03125 C 495.28125 273.554688 494.71875 269.648438 494.71875 265.3125 C 494.71875 260.992188 495.28125 257.078125 496.40625 253.578125 C 497.539062 250.078125 499.191406 247.089844 501.359375 244.609375 C 503.523438 242.132812 506.171875 240.21875 509.296875 238.875 C 512.421875 237.523438 515.960938 236.84375 519.921875 236.84375 Z M 519.921875 289.515625 C 523.210938 289.515625 526.085938 288.953125 528.546875 287.828125 C 531.015625 286.695312 533.070312 285.074219 534.71875 282.96875 C 536.363281 280.855469 537.59375 278.308594 538.40625 275.328125 C 539.21875 272.351562 539.625 269.011719 539.625 265.3125 C 539.625 261.648438 539.21875 258.320312 538.40625 255.328125 C 537.59375 252.328125 536.363281 249.765625 534.71875 247.640625 C 533.070312 245.515625 531.015625 243.882812 528.546875 242.734375 C 526.085938 241.578125 523.210938 241 519.921875 241 C 516.628906 241 513.75 241.578125 511.28125 242.734375 C 508.820312 243.882812 506.769531 245.515625 505.125 247.640625 C 503.476562 249.765625 502.238281 252.328125 501.40625 255.328125 C 500.582031 258.320312 500.171875 261.648438 500.171875 265.3125 C 500.171875 269.011719 500.582031 272.351562 501.40625 275.328125 C 502.238281 278.308594 503.476562 280.855469 505.125 282.96875 C 506.769531 285.074219 508.820312 286.695312 511.28125 287.828125 C 513.75 288.953125 516.628906 289.515625 519.921875 289.515625 Z M 565.328125 280.90625 C 566.398438 282.5 567.515625 283.84375 568.671875 284.9375 C 569.835938 286.03125 571.066406 286.921875 572.359375 287.609375 C 573.660156 288.289062 575.039062 288.777344 576.5 289.078125 C 577.96875 289.371094 579.515625 289.515625 581.140625 289.515625 C 584.390625 289.515625 587.234375 288.921875 589.671875 287.734375 C 592.117188 286.546875 594.164062 284.875 595.8125 282.71875 C 597.457031 280.554688 598.695312 277.964844 599.53125 274.953125 C 600.363281 271.933594 600.78125 268.609375 600.78125 264.984375 C 600.78125 256.765625 599.265625 250.726562 596.234375 246.859375 C 593.203125 242.996094 588.851562 241.0625 583.1875 241.0625 C 579.53125 241.0625 576.21875 242.007812 573.25 243.890625 C 570.289062 245.777344 567.648438 248.402344 565.328125 251.765625 Z M 565.09375 247.671875 C 567.539062 244.339844 570.398438 241.695312 573.671875 239.734375 C 576.941406 237.765625 580.613281 236.78125 584.6875 236.78125 C 591.457031 236.78125 596.738281 239.136719 600.53125 243.84375 C 604.320312 248.542969 606.21875 255.589844 606.21875 264.984375 C 606.21875 269.015625 605.691406 272.78125 604.640625 276.28125 C 603.585938 279.773438 602.035156 282.804688 599.984375 285.375 C 597.929688 287.949219 595.414062 289.976562 592.4375 291.453125 C 589.457031 292.933594 586.023438 293.671875 582.140625 293.671875 C 578.398438 293.671875 575.160156 292.988281 572.421875 291.625 C 569.679688 290.25 567.316406 288.234375 565.328125 285.578125 L 565.328125 312.484375 L 560 312.484375 L 560 237.734375 L 562.9375 237.734375 C 563.863281 237.734375 564.398438 238.199219 564.546875 239.125 Z M 626.542969 247.046875 C 629.09375 243.945312 632.003906 241.46875 635.277344 239.625 C 638.546875 237.773438 642.21875 236.84375 646.292969 236.84375 C 649.324219 236.84375 651.996094 237.328125 654.308594 238.296875 C 656.621094 239.257812 658.535156 240.640625 660.058594 242.453125 C 661.578125 244.265625 662.722656 246.449219 663.496094 249 C 664.277344 251.554688 664.667969 254.4375 664.667969 257.65625 L 664.667969 292.953125 L 659.339844 292.953125 L 659.339844 257.65625 C 659.339844 252.480469 658.152344 248.421875 655.777344 245.484375 C 653.410156 242.539062 649.808594 241.0625 644.964844 241.0625 C 641.371094 241.0625 638.011719 241.980469 634.886719 243.8125 C 631.761719 245.648438 628.980469 248.1875 626.542969 251.4375 L 626.542969 292.953125 L 621.214844 292.953125 L 621.214844 212.203125 L 626.542969 212.203125 Z M 704.125 236.84375 C 708.082031 236.84375 711.625 237.523438 714.75 238.875 C 717.875 240.21875 720.507812 242.132812 722.65625 244.609375 C 724.800781 247.089844 726.4375 250.078125 727.5625 253.578125 C 728.695312 257.078125 729.265625 260.992188 729.265625 265.3125 C 729.265625 269.648438 728.695312 273.554688 727.5625 277.03125 C 726.4375 280.5 724.800781 283.476562 722.65625 285.953125 C 720.507812 288.433594 717.875 290.339844 714.75 291.671875 C 711.625 293.003906 708.082031 293.671875 704.125 293.671875 C 700.164062 293.671875 696.625 293.003906 693.5 291.671875 C 690.375 290.339844 687.726562 288.433594 685.5625 285.953125 C 683.394531 283.476562 681.742188 280.5 680.609375 277.03125 C 679.484375 273.554688 678.921875 269.648438 678.921875 265.3125 C 678.921875 260.992188 679.484375 257.078125 680.609375 253.578125 C 681.742188 250.078125 683.394531 247.089844 685.5625 244.609375 C 687.726562 242.132812 690.375 240.21875 693.5 238.875 C 696.625 237.523438 700.164062 236.84375 704.125 236.84375 Z M 704.125 289.515625 C 707.414062 289.515625 710.289062 288.953125 712.75 287.828125 C 715.21875 286.695312 717.273438 285.074219 718.921875 282.96875 C 720.566406 280.855469 721.796875 278.308594 722.609375 275.328125 C 723.421875 272.351562 723.828125 269.011719 723.828125 265.3125 C 723.828125 261.648438 723.421875 258.320312 722.609375 255.328125 C 721.796875 252.328125 720.566406 249.765625 718.921875 247.640625 C 717.273438 245.515625 715.21875 243.882812 712.75 242.734375 C 710.289062 241.578125 707.414062 241 704.125 241 C 700.832031 241 697.953125 241.578125 695.484375 242.734375 C 693.023438 243.882812 690.972656 245.515625 689.328125 247.640625 C 687.679688 249.765625 686.441406 252.328125 685.609375 255.328125 C 684.785156 258.320312 684.375 261.648438 684.375 265.3125 C 684.375 269.011719 684.785156 272.351562 685.609375 275.328125 C 686.441406 278.308594 687.679688 280.855469 689.328125 282.96875 C 690.972656 285.074219 693.023438 286.695312 695.484375 287.828125 C 697.953125 288.953125 700.832031 289.515625 704.125 289.515625 Z M 749.25 247.390625 C 751.800781 244.203125 754.75 241.652344 758.09375 239.734375 C 761.445312 237.808594 765.175781 236.84375 769.28125 236.84375 C 772.3125 236.84375 774.984375 237.328125 777.296875 238.296875 C 779.609375 239.257812 781.523438 240.640625 783.046875 242.453125 C 784.566406 244.265625 785.710938 246.449219 786.484375 249 C 787.265625 251.554688 787.65625 254.4375 787.65625 257.65625 L 787.65625 292.953125 L 782.328125 292.953125 L 782.328125 257.65625 C 782.328125 252.480469 781.140625 248.421875 778.765625 245.484375 C 776.398438 242.539062 772.796875 241.0625 767.953125 241.0625 C 764.359375 241.0625 761 241.980469 757.875 243.8125 C 754.75 245.648438 751.96875 248.1875 749.53125 251.4375 L 749.53125 292.953125 L 744.203125 292.953125 L 744.203125 237.734375 L 747.140625 237.734375 C 748.066406 237.734375 748.601562 238.199219 748.75 239.125 Z M 328.5 183.398438 "/>
<path style=" stroke:none;fill-rule:nonzero;fill:rgb(70.588235%,49.019608%,33.72549%);fill-opacity:1;" d="M 291.179688 290.625 C 291.179688 294.0625 288.476562 296.875 285.179688 296.875 L 222.179688 296.875 C 218.878906 296.875 216.179688 294.0625 216.179688 290.625 L 216.179688 209.375 C 216.179688 205.9375 218.878906 203.125 222.179688 203.125 L 285.179688 203.125 C 288.476562 203.125 291.179688 205.9375 291.179688 209.375 Z M 291.179688 290.625 "/>
<path style=" stroke:none;fill-rule:nonzero;fill:rgb(81.176471%,84.705882%,86.666667%);fill-opacity:1;" d="M 269.304688 212.5 C 269.304688 214.21875 267.898438 215.625 266.179688 215.625 L 241.179688 215.625 C 239.460938 215.625 238.054688 214.21875 238.054688 212.5 L 238.054688 209.375 L 269.304688 209.375 Z M 269.304688 212.5 "/>
<path style=" stroke:none;fill-rule:nonzero;fill:rgb(60%,65.882353%,68.235294%);fill-opacity:1;" d="M 269.304688 210.9375 C 269.304688 212.65625 267.898438 214.0625 266.179688 214.0625 L 241.179688 214.0625 C 239.460938 214.0625 238.054688 212.65625 238.054688 210.9375 L 238.054688 207.8125 C 238.054688 206.09375 239.460938 204.6875 241.179688 204.6875 L 266.179688 204.6875 C 267.898438 204.6875 269.304688 206.09375 269.304688 207.8125 Z M 269.304688 210.9375 "/>
<path style=" stroke:none;fill-rule:nonzero;fill:rgb(18.823529%,17.254902%,23.137255%);fill-opacity:1;" d="M 264.617188 209.375 L 242.742188 209.375 L 242.742188 206.25 C 242.742188 204.53125 244.148438 203.125 245.867188 203.125 L 261.492188 203.125 C 263.210938 203.125 264.617188 204.53125 264.617188 206.25 Z M 264.617188 209.375 "/>
<path style=" stroke:none;fill-rule:nonzero;fill:rgb(47.058824%,33.72549%,27.843137%);fill-opacity:1;" d="M 223.429688 213.28125 L 225.351562 293.683594 L 286.191406 292.453125 L 284.367188 212.5 Z M 223.429688 213.28125 "/>
<path style=" stroke:none;fill-rule:nonzero;fill:rgb(57.254902%,78.823529%,19.607843%);fill-opacity:1;" d="M 232.097656 231.277344 L 228.359375 227.53125 L 226.808594 229.082031 L 232.097656 234.375 L 239.921875 226.546875 L 238.375 225 Z M 232.097656 231.277344 "/>
<path style=" stroke:none;fill-rule:nonzero;fill:rgb(100%,100%,100%);fill-opacity:1;" d="M 222.429688 209.375 L 284.929688 209.375 L 284.929688 290.625 L 222.429688 290.625 Z M 222.429688 209.375 "/>
<path style=" stroke:none;fill-rule:nonzero;fill:rgb(57.254902%,78.823529%,19.607843%);fill-opacity:1;" d="M 247.429688 228.125 L 278.679688 228.125 L 278.679688 231.25 L 247.429688 231.25 Z M 247.429688 228.125 "/>
<path style=" stroke:none;fill-rule:nonzero;fill:rgb(43.137255%,50.588235%,53.72549%);fill-opacity:1;" d="M 247.429688 243.75 L 278.679688 243.75 L 278.679688 246.875 L 247.429688 246.875 Z M 247.429688 243.75 "/>
<path style=" stroke:none;fill-rule:nonzero;fill:rgb(43.137255%,50.588235%,53.72549%);fill-opacity:1;" d="M 247.429688 259.375 L 278.679688 259.375 L 278.679688 262.5 L 247.429688 262.5 Z M 247.429688 259.375 "/>
<path style=" stroke:none;fill-rule:nonzero;fill:rgb(43.137255%,50.588235%,53.72549%);fill-opacity:1;" d="M 247.429688 275 L 278.679688 275 L 278.679688 278.125 L 247.429688 278.125 Z M 247.429688 275 "/>
<path style=" stroke:none;fill-rule:nonzero;fill:rgb(43.137255%,50.588235%,53.72549%);fill-opacity:1;" d="M 228.679688 240.625 L 238.054688 240.625 L 238.054688 250 L 228.679688 250 Z M 228.679688 240.625 "/>
<path style=" stroke:none;fill-rule:nonzero;fill:rgb(43.137255%,50.588235%,53.72549%);fill-opacity:1;" d="M 228.679688 256.25 L 238.054688 256.25 L 238.054688 265.625 L 228.679688 265.625 Z M 228.679688 256.25 "/>
<path style=" stroke:none;fill-rule:nonzero;fill:rgb(43.137255%,50.588235%,53.72549%);fill-opacity:1;" d="M 228.679688 271.875 L 238.054688 271.875 L 238.054688 281.25 L 228.679688 281.25 Z M 228.679688 271.875 "/>
<path style=" stroke:none;fill-rule:nonzero;fill:rgb(30.588235%,36.862745%,40.392157%);fill-opacity:1;" d="M 242.742188 209.375 L 264.617188 209.375 L 264.617188 210.9375 L 242.742188 210.9375 Z M 242.742188 209.375 "/>
</g>
</svg>
