<?xml version="1.0" encoding="UTF-8"?>
<svg xmlns="http://www.w3.org/2000/svg" xmlns:xlink="http://www.w3.org/1999/xlink" width="2800pt" height="500pt" viewBox="0 0 2800 500" version="1.1">
<g id="surface1">
<path style=" stroke:none;fill-rule:nonzero;fill:rgb(70.588235%,49.019608%,33.72549%);fill-opacity:1;" d="M 979.84375 361.492188 C 981.226562 361.492188 982.40625 361.976562 983.375 362.945312 L 991.703125 371.882812 C 985.597656 378.40625 978.972656 384.265625 971.828125 389.460938 C 964.691406 394.660156 956.859375 399.097656 948.328125 402.773438 C 939.796875 406.453125 930.429688 409.296875 920.234375 411.304688 C 910.046875 413.3125 898.851562 414.320312 886.65625 414.320312 C 866.269531 414.320312 847.582031 410.753906 830.59375 403.617188 C 813.613281 396.472656 799.019531 386.347656 786.8125 373.242188 C 774.613281 360.140625 765.148438 344.296875 758.421875 325.710938 C 751.703125 307.128906 748.34375 286.46875 748.34375 263.726562 C 748.34375 241.40625 751.804688 221.023438 758.734375 202.585938 C 765.671875 184.140625 775.378906 168.296875 787.859375 155.054688 C 800.335938 141.804688 815.3125 131.546875 832.78125 124.273438 C 850.25 116.992188 869.523438 113.351562 890.609375 113.351562 C 910.710938 113.351562 928.53125 116.472656 944.0625 122.710938 C 959.59375 128.953125 973.738281 137.753906 986.5 149.117188 L 980.046875 158.476562 C 978.941406 160.144531 977.207031 160.976562 974.84375 160.976562 C 973.1875 160.976562 970.484375 159.453125 966.734375 156.398438 C 962.992188 153.347656 957.796875 149.988281 951.140625 146.320312 C 944.484375 142.644531 936.195312 139.28125 926.28125 136.226562 C 916.363281 133.175781 904.472656 131.648438 890.609375 131.648438 C 872.859375 131.648438 856.597656 134.703125 841.828125 140.804688 C 827.066406 146.898438 814.378906 155.632812 803.765625 167.007812 C 793.160156 178.382812 784.875 192.253906 778.90625 208.617188 C 772.945312 224.972656 769.96875 243.34375 769.96875 263.726562 C 769.96875 284.53125 772.984375 303.113281 779.015625 319.476562 C 785.046875 335.84375 793.332031 349.675781 803.875 360.976562 C 814.414062 372.269531 826.859375 380.9375 841.203125 386.976562 C 855.554688 393.007812 871.054688 396.023438 887.703125 396.023438 C 898.234375 396.023438 907.625 395.332031 915.875 393.945312 C 924.125 392.550781 931.71875 390.46875 938.65625 387.695312 C 945.59375 384.925781 952.039062 381.53125 958 377.507812 C 963.957031 373.488281 969.851562 368.773438 975.6875 363.367188 C 976.375 362.804688 977.0625 362.351562 977.75 362.007812 C 978.445312 361.664062 979.144531 361.492188 979.84375 361.492188 Z M 1117.328125 200.710938 C 1132.160156 200.710938 1145.4375 203.242188 1157.15625 208.304688 C 1168.875 213.359375 1178.753906 220.53125 1186.796875 229.820312 C 1194.835938 239.113281 1200.972656 250.3125 1205.203125 263.414062 C 1209.429688 276.519531 1211.546875 291.1875 1211.546875 307.414062 C 1211.546875 323.632812 1209.429688 338.265625 1205.203125 351.304688 C 1200.972656 364.335938 1194.835938 375.5 1186.796875 384.789062 C 1178.753906 394.082031 1168.875 401.222656 1157.15625 406.210938 C 1145.4375 411.199219 1132.160156 413.695312 1117.328125 413.695312 C 1102.492188 413.695312 1089.21875 411.199219 1077.5 406.210938 C 1065.78125 401.222656 1055.863281 394.082031 1047.75 384.789062 C 1039.632812 375.5 1033.460938 364.335938 1029.234375 351.304688 C 1025.003906 338.265625 1022.890625 323.632812 1022.890625 307.414062 C 1022.890625 291.1875 1025.003906 276.519531 1029.234375 263.414062 C 1033.460938 250.3125 1039.632812 239.113281 1047.75 229.820312 C 1055.863281 220.53125 1065.78125 213.359375 1077.5 208.304688 C 1089.21875 203.242188 1102.492188 200.710938 1117.328125 200.710938 Z M 1117.328125 398.101562 C 1129.671875 398.101562 1140.453125 395.988281 1149.671875 391.757812 C 1158.890625 387.53125 1166.582031 381.460938 1172.75 373.554688 C 1178.925781 365.648438 1183.539062 356.117188 1186.59375 344.960938 C 1189.644531 333.796875 1191.171875 321.28125 1191.171875 307.414062 C 1191.171875 293.6875 1189.644531 281.207031 1186.59375 269.976562 C 1183.539062 258.738281 1178.925781 249.132812 1172.75 241.164062 C 1166.582031 233.1875 1158.890625 227.050781 1149.671875 222.757812 C 1140.453125 218.457031 1129.671875 216.304688 1117.328125 216.304688 C 1104.984375 216.304688 1094.203125 218.457031 1084.984375 222.757812 C 1075.765625 227.050781 1068.066406 233.1875 1061.890625 241.164062 C 1055.722656 249.132812 1051.078125 258.738281 1047.953125 269.976562 C 1044.835938 281.207031 1043.28125 293.6875 1043.28125 307.414062 C 1043.28125 321.28125 1044.835938 333.796875 1047.953125 344.960938 C 1051.078125 356.117188 1055.722656 365.648438 1061.890625 373.554688 C 1068.066406 381.460938 1075.765625 387.53125 1084.984375 391.757812 C 1094.203125 395.988281 1104.984375 398.101562 1117.328125 398.101562 Z M 1289.34375 108.351562 L 1289.34375 410.992188 L 1269.375 410.992188 L 1269.375 108.351562 Z M 1441.390625 200.710938 C 1456.222656 200.710938 1469.5 203.242188 1481.21875 208.304688 C 1492.9375 213.359375 1502.816406 220.53125 1510.859375 229.820312 C 1518.898438 239.113281 1525.035156 250.3125 1529.265625 263.414062 C 1533.492188 276.519531 1535.609375 291.1875 1535.609375 307.414062 C 1535.609375 323.632812 1533.492188 338.265625 1529.265625 351.304688 C 1525.035156 364.335938 1518.898438 375.5 1510.859375 384.789062 C 1502.816406 394.082031 1492.9375 401.222656 1481.21875 406.210938 C 1469.5 411.199219 1456.222656 413.695312 1441.390625 413.695312 C 1426.554688 413.695312 1413.28125 411.199219 1401.5625 406.210938 C 1389.84375 401.222656 1379.925781 394.082031 1371.8125 384.789062 C 1363.695312 375.5 1357.523438 364.335938 1353.296875 351.304688 C 1349.066406 338.265625 1346.953125 323.632812 1346.953125 307.414062 C 1346.953125 291.1875 1349.066406 276.519531 1353.296875 263.414062 C 1357.523438 250.3125 1363.695312 239.113281 1371.8125 229.820312 C 1379.925781 220.53125 1389.84375 213.359375 1401.5625 208.304688 C 1413.28125 203.242188 1426.554688 200.710938 1441.390625 200.710938 Z M 1441.390625 398.101562 C 1453.734375 398.101562 1464.515625 395.988281 1473.734375 391.757812 C 1482.953125 387.53125 1490.644531 381.460938 1496.8125 373.554688 C 1502.988281 365.648438 1507.601562 356.117188 1510.65625 344.960938 C 1513.707031 333.796875 1515.234375 321.28125 1515.234375 307.414062 C 1515.234375 293.6875 1513.707031 281.207031 1510.65625 269.976562 C 1507.601562 258.738281 1502.988281 249.132812 1496.8125 241.164062 C 1490.644531 233.1875 1482.953125 227.050781 1473.734375 222.757812 C 1464.515625 218.457031 1453.734375 216.304688 1441.390625 216.304688 C 1429.046875 216.304688 1418.265625 218.457031 1409.046875 222.757812 C 1399.828125 227.050781 1392.128906 233.1875 1385.953125 241.164062 C 1379.785156 249.132812 1375.140625 258.738281 1372.015625 269.976562 C 1368.898438 281.207031 1367.34375 293.6875 1367.34375 307.414062 C 1367.34375 321.28125 1368.898438 333.796875 1372.015625 344.960938 C 1375.140625 356.117188 1379.785156 365.648438 1385.953125 373.554688 C 1392.128906 381.460938 1399.828125 387.53125 1409.046875 391.757812 C 1418.265625 395.988281 1429.046875 398.101562 1441.390625 398.101562 Z M 1611.53125 365.851562 C 1615.550781 371.820312 1619.742188 376.851562 1624.109375 380.945312 C 1628.484375 385.03125 1633.097656 388.359375 1637.953125 390.929688 C 1642.804688 393.492188 1647.96875 395.332031 1653.4375 396.445312 C 1658.914062 397.550781 1664.707031 398.101562 1670.8125 398.101562 C 1683.007812 398.101562 1693.6875 395.882812 1702.84375 391.445312 C 1712 387.007812 1719.660156 380.734375 1725.828125 372.617188 C 1731.992188 364.503906 1736.632812 354.796875 1739.75 343.492188 C 1742.875 332.191406 1744.4375 319.75 1744.4375 306.164062 C 1744.4375 275.375 1738.75 252.734375 1727.375 238.242188 C 1716.007812 223.753906 1699.722656 216.507812 1678.515625 216.507812 C 1664.785156 216.507812 1652.375 220.046875 1641.28125 227.117188 C 1630.1875 234.191406 1620.269531 244.035156 1611.53125 256.648438 Z M 1610.703125 241.257812 C 1619.847656 228.78125 1630.554688 218.867188 1642.828125 211.523438 C 1655.109375 204.171875 1668.875 200.492188 1684.125 200.492188 C 1709.5 200.492188 1729.289062 209.300781 1743.5 226.914062 C 1757.71875 244.53125 1764.828125 270.945312 1764.828125 306.164062 C 1764.828125 321.28125 1762.847656 335.390625 1758.890625 348.492188 C 1754.941406 361.597656 1749.117188 372.96875 1741.421875 382.601562 C 1733.734375 392.238281 1724.304688 399.832031 1713.140625 405.382812 C 1701.972656 410.925781 1689.113281 413.695312 1674.5625 413.695312 C 1660.550781 413.695312 1648.414062 411.132812 1638.15625 406.007812 C 1627.894531 400.875 1619.019531 393.316406 1611.53125 383.335938 L 1611.53125 484.210938 L 1591.5625 484.210938 L 1591.5625 204.039062 L 1602.59375 204.039062 C 1606.0625 204.039062 1608.070312 205.769531 1608.625 209.226562 Z M 1840.957031 238.976562 C 1850.527344 227.332031 1861.449219 218.046875 1873.722656 211.117188 C 1885.992188 204.179688 1899.753906 200.710938 1915.003906 200.710938 C 1926.378906 200.710938 1936.398438 202.515625 1945.066406 206.117188 C 1953.730469 209.722656 1960.902344 214.921875 1966.582031 221.710938 C 1972.269531 228.503906 1976.566406 236.6875 1979.472656 246.257812 C 1982.386719 255.820312 1983.847656 266.640625 1983.847656 278.710938 L 1983.847656 410.992188 L 1963.894531 410.992188 L 1963.894531 278.710938 C 1963.894531 259.296875 1959.457031 244.078125 1950.582031 233.054688 C 1941.707031 222.023438 1928.183594 216.507812 1910.019531 216.507812 C 1896.558594 216.507812 1883.972656 219.941406 1872.253906 226.804688 C 1860.542969 233.671875 1850.113281 243.207031 1840.957031 255.414062 L 1840.957031 410.992188 L 1820.988281 410.992188 L 1820.988281 108.351562 L 1840.957031 108.351562 Z M 2131.742188 200.710938 C 2146.574219 200.710938 2159.851562 203.242188 2171.570312 208.304688 C 2183.289062 213.359375 2193.167969 220.53125 2201.210938 229.820312 C 2209.25 239.113281 2215.386719 250.3125 2219.617188 263.414062 C 2223.84375 276.519531 2225.960938 291.1875 2225.960938 307.414062 C 2225.960938 323.632812 2223.84375 338.265625 2219.617188 351.304688 C 2215.386719 364.335938 2209.25 375.5 2201.210938 384.789062 C 2193.167969 394.082031 2183.289062 401.222656 2171.570312 406.210938 C 2159.851562 411.199219 2146.574219 413.695312 2131.742188 413.695312 C 2116.90625 413.695312 2103.632812 411.199219 2091.914062 406.210938 C 2080.195312 401.222656 2070.277344 394.082031 2062.164062 384.789062 C 2054.046875 375.5 2047.875 364.335938 2043.648438 351.304688 C 2039.417969 338.265625 2037.304688 323.632812 2037.304688 307.414062 C 2037.304688 291.1875 2039.417969 276.519531 2043.648438 263.414062 C 2047.875 250.3125 2054.046875 239.113281 2062.164062 229.820312 C 2070.277344 220.53125 2080.195312 213.359375 2091.914062 208.304688 C 2103.632812 203.242188 2116.90625 200.710938 2131.742188 200.710938 Z M 2131.742188 398.101562 C 2144.085938 398.101562 2154.867188 395.988281 2164.085938 391.757812 C 2173.304688 387.53125 2180.996094 381.460938 2187.164062 373.554688 C 2193.339844 365.648438 2197.953125 356.117188 2201.007812 344.960938 C 2204.058594 333.796875 2205.585938 321.28125 2205.585938 307.414062 C 2205.585938 293.6875 2204.058594 281.207031 2201.007812 269.976562 C 2197.953125 258.738281 2193.339844 249.132812 2187.164062 241.164062 C 2180.996094 233.1875 2173.304688 227.050781 2164.085938 222.757812 C 2154.867188 218.457031 2144.085938 216.304688 2131.742188 216.304688 C 2119.398438 216.304688 2108.617188 218.457031 2099.398438 222.757812 C 2090.179688 227.050781 2082.480469 233.1875 2076.304688 241.164062 C 2070.136719 249.132812 2065.492188 258.738281 2062.367188 269.976562 C 2059.25 281.207031 2057.695312 293.6875 2057.695312 307.414062 C 2057.695312 321.28125 2059.25 333.796875 2062.367188 344.960938 C 2065.492188 356.117188 2070.136719 365.648438 2076.304688 373.554688 C 2082.480469 381.460938 2090.179688 387.53125 2099.398438 391.757812 C 2108.617188 395.988281 2119.398438 398.101562 2131.742188 398.101562 Z M 2300.851562 240.226562 C 2310.414062 228.300781 2321.46875 218.734375 2334.023438 211.523438 C 2346.574219 204.316406 2360.542969 200.710938 2375.929688 200.710938 C 2387.304688 200.710938 2397.324219 202.515625 2405.992188 206.117188 C 2414.65625 209.722656 2421.828125 214.921875 2427.507812 221.710938 C 2433.195312 228.503906 2437.492188 236.6875 2440.398438 246.257812 C 2443.3125 255.820312 2444.773438 266.640625 2444.773438 278.710938 L 2444.773438 410.992188 L 2424.820312 410.992188 L 2424.820312 278.710938 C 2424.820312 259.296875 2420.382812 244.078125 2411.507812 233.054688 C 2402.632812 222.023438 2389.109375 216.507812 2370.945312 216.507812 C 2357.484375 216.507812 2344.898438 219.941406 2333.179688 226.804688 C 2321.46875 233.671875 2311.039062 243.207031 2301.882812 255.414062 L 2301.882812 410.992188 L 2281.914062 410.992188 L 2281.914062 204.039062 L 2292.945312 204.039062 C 2296.414062 204.039062 2298.421875 205.769531 2298.976562 209.226562 Z M 724 0.398438 "/>
<path style=" stroke:none;fill-rule:nonzero;fill:rgb(70.588235%,49.019608%,33.72549%);fill-opacity:1;" d="M 651.820312 402.34375 C 651.820312 415.226562 641.691406 425.78125 629.320312 425.78125 L 393.070312 425.78125 C 380.695312 425.78125 370.570312 415.226562 370.570312 402.34375 L 370.570312 97.65625 C 370.570312 84.765625 380.695312 74.21875 393.070312 74.21875 L 629.320312 74.21875 C 641.691406 74.21875 651.820312 84.765625 651.820312 97.65625 Z M 651.820312 402.34375 "/>
<path style=" stroke:none;fill-rule:nonzero;fill:rgb(81.176471%,84.705882%,86.666667%);fill-opacity:1;" d="M 569.789062 109.375 C 569.789062 115.820312 564.515625 121.09375 558.070312 121.09375 L 464.320312 121.09375 C 457.875 121.09375 452.601562 115.820312 452.601562 109.375 L 452.601562 97.65625 L 569.789062 97.65625 Z M 569.789062 109.375 "/>
<path style=" stroke:none;fill-rule:nonzero;fill:rgb(60%,65.882353%,68.235294%);fill-opacity:1;" d="M 569.789062 103.515625 C 569.789062 109.960938 564.515625 115.234375 558.070312 115.234375 L 464.320312 115.234375 C 457.875 115.234375 452.601562 109.960938 452.601562 103.515625 L 452.601562 91.796875 C 452.601562 85.351562 457.875 80.078125 464.320312 80.078125 L 558.070312 80.078125 C 564.515625 80.078125 569.789062 85.351562 569.789062 91.796875 Z M 569.789062 103.515625 "/>
<path style=" stroke:none;fill-rule:nonzero;fill:rgb(18.823529%,17.254902%,23.137255%);fill-opacity:1;" d="M 552.210938 97.65625 L 470.179688 97.65625 L 470.179688 85.9375 C 470.179688 79.492188 475.453125 74.21875 481.898438 74.21875 L 540.492188 74.21875 C 546.9375 74.21875 552.210938 79.492188 552.210938 85.9375 Z M 552.210938 97.65625 "/>
<path style=" stroke:none;fill-rule:nonzero;fill:rgb(47.058824%,33.72549%,27.843137%);fill-opacity:1;" d="M 397.765625 112.296875 L 404.964844 413.8125 L 633.117188 409.199219 L 626.28125 109.375 Z M 397.765625 112.296875 "/>
<path style=" stroke:none;fill-rule:nonzero;fill:rgb(57.254902%,78.823529%,19.607843%);fill-opacity:1;" d="M 430.265625 179.789062 L 416.246094 165.75 L 410.433594 171.554688 L 430.265625 191.40625 L 459.617188 162.050781 L 453.804688 156.25 Z M 430.265625 179.789062 "/>
<path style=" stroke:none;fill-rule:nonzero;fill:rgb(100%,100%,100%);fill-opacity:1;" d="M 394.007812 97.65625 L 628.382812 97.65625 L 628.382812 402.34375 L 394.007812 402.34375 Z M 394.007812 97.65625 "/>
<path style=" stroke:none;fill-rule:nonzero;fill:rgb(57.254902%,78.823529%,19.607843%);fill-opacity:1;" d="M 487.757812 167.96875 L 604.945312 167.96875 L 604.945312 179.6875 L 487.757812 179.6875 Z M 487.757812 167.96875 "/>
<path style=" stroke:none;fill-rule:nonzero;fill:rgb(43.137255%,50.588235%,53.72549%);fill-opacity:1;" d="M 487.757812 226.5625 L 604.945312 226.5625 L 604.945312 238.28125 L 487.757812 238.28125 Z M 487.757812 226.5625 "/>
<path style=" stroke:none;fill-rule:nonzero;fill:rgb(43.137255%,50.588235%,53.72549%);fill-opacity:1;" d="M 487.757812 285.15625 L 604.945312 285.15625 L 604.945312 296.875 L 487.757812 296.875 Z M 487.757812 285.15625 "/>
<path style=" stroke:none;fill-rule:nonzero;fill:rgb(43.137255%,50.588235%,53.72549%);fill-opacity:1;" d="M 487.757812 343.75 L 604.945312 343.75 L 604.945312 355.46875 L 487.757812 355.46875 Z M 487.757812 343.75 "/>
<path style=" stroke:none;fill-rule:nonzero;fill:rgb(43.137255%,50.588235%,53.72549%);fill-opacity:1;" d="M 417.445312 214.84375 L 452.601562 214.84375 L 452.601562 250 L 417.445312 250 Z M 417.445312 214.84375 "/>
<path style=" stroke:none;fill-rule:nonzero;fill:rgb(43.137255%,50.588235%,53.72549%);fill-opacity:1;" d="M 417.445312 273.4375 L 452.601562 273.4375 L 452.601562 308.59375 L 417.445312 308.59375 Z M 417.445312 273.4375 "/>
<path style=" stroke:none;fill-rule:nonzero;fill:rgb(43.137255%,50.588235%,53.72549%);fill-opacity:1;" d="M 417.445312 332.03125 L 452.601562 332.03125 L 452.601562 367.1875 L 417.445312 367.1875 Z M 417.445312 332.03125 "/>
<path style=" stroke:none;fill-rule:nonzero;fill:rgb(30.588235%,36.862745%,40.392157%);fill-opacity:1;" d="M 470.179688 97.65625 L 552.210938 97.65625 L 552.210938 103.515625 L 470.179688 103.515625 Z M 470.179688 97.65625 "/>
</g>
</svg>
